<svg xmlns="http://www.w3.org/2000/svg" xmlns:xlink="http://www.w3.org/1999/xlink" id="Layer_1" viewBox="0 0 325.7 84.26"><defs><style>.cls-1{fill:#fff;}.cls-2,.cls-3{fill-rule:evenodd;}.cls-2,.cls-4,.cls-5{fill:#4f2678;}.cls-6{clip-path:url(#clippath-2);}.cls-3,.cls-7,.cls-8{fill:#6d4f98;}.cls-9{clip-path:url(#clippath-1);}.cls-10{fill:#443188;}.cls-11{clip-path:url(#clippath);}.cls-12{clip-path:url(#clippath-3);}.cls-8,.cls-5{clip-rule:evenodd;}</style><clipPath id="clippath"><path class="cls-5" d="M62.93,41.68c-.71,2.44-1.58,4.85-2.65,7.15,4.04,1.69,8.07,3.38,12.11,5.07,.29-.51,.56-1.03,.83-1.55,1.86-3.67,3.3-7.56,4.42-11.52-4.78,.35-9.68,.64-14.71,.85m-8.91,38.48c3.97-3.05,7.95-6.1,11.92-9.15,3.95-3.03,7.9-6.07,11.84-9.1-4.87-2.04-9.74-4.07-14.6-6.11-4.82-2.02-9.65-4.04-14.47-6.07,.58,3.38,1.17,6.77,1.77,10.15l.15,.87-.75,.46c-4.21,2.57-8.99,3.58-13.89,3.58-5.73,0-11.87-1.35-14.91-6.7-2.63-4.63-2.21-11.04-1.16-16.47-4.92-.22-9.74-.51-14.42-.87-1.05,4.66-1.74,9.65-1.37,14.38,.3,3.89,1.35,7.72,3.73,10.86,2.36,3.12,5.7,5.12,9.35,6.4,4.92,1.72,10.52,2.2,15.7,2.2,6.12,0,12.31-.88,18.09-2.93l1.45-.51,.26,1.51c.43,2.5,.87,4.99,1.3,7.49Z"></path></clipPath><clipPath id="clippath-1"><rect class="cls-4" x="3.77" y="40.76" width="74.02" height="39.4"></rect></clipPath><clipPath id="clippath-2"><path class="cls-8" d="M19.92,41.62c.22-1.12,.46-2.19,.71-3.2,1.72-6.95,4.64-14.33,9.97-19.32,4.89-4.59,11-6.42,17.64-6.42,5.73,0,11.9,1.35,14.95,6.69,3.19,5.58,1.91,13.77,.45,19.68-.22,.88-.45,1.76-.71,2.64,5.02-.21,9.93-.5,14.71-.85,.23-.8,.44-1.6,.64-2.41,1.27-5.12,2.16-10.74,1.73-16.03-.32-3.87-1.36-7.7-3.77-10.81-2.39-3.09-5.75-5.06-9.4-6.32-4.9-1.7-10.42-2.19-15.58-2.19-5.65,0-11.38,.6-16.82,2.21-4.69,1.38-9.06,3.51-12.9,6.55-3.87,3.06-6.96,6.89-9.42,11.15-2.88,4.99-4.85,10.54-6.23,16.12-.14,.55-.27,1.1-.39,1.66,4.68,.36,9.5,.65,14.42,.87"></path></clipPath><clipPath id="clippath-3"><rect class="cls-7" x="5.5" y="3.07" width="74.94" height="38.61"></rect></clipPath></defs><g><path class="cls-1" d="M160.02,43.34c0,18.91-14.18,33.39-33.48,33.39s-33.48-14.47-33.48-33.39S107.24,9.95,126.54,9.95s33.48,14.47,33.48,33.39Zm-9.84,0c0-14.28-9.84-24.32-23.64-24.32s-23.64,10.03-23.64,24.32,9.84,24.32,23.64,24.32,23.64-10.03,23.64-24.32Z"></path><path class="cls-1" d="M180.08,5.13V75.47h-9.46V5.13h9.46Z"></path><path class="cls-1" d="M196.77,11.98c3.47,0,6.08,2.61,6.08,6.08s-2.61,6.08-6.08,6.08-6.08-2.61-6.08-6.08,2.61-6.08,6.08-6.08Zm4.73,22.87v40.62h-9.46V34.84h9.46Z"></path><path class="cls-1" d="M213.36,34.84h9.46v3.76c4.05-4.54,8.68-4.83,11-4.83,7.53,0,10.71,3.76,11.96,5.5,1.54,2.22,2.51,5.02,2.51,11.29v24.89h-9.46v-22.58c0-10.32-3.86-10.61-7.43-10.61-4.25,0-8.59,.58-8.59,13.7v19.49h-9.46V34.84Z"></path><path class="cls-1" d="M264.97,11.98c3.47,0,6.08,2.61,6.08,6.08s-2.61,6.08-6.08,6.08-6.08-2.61-6.08-6.08,2.61-6.08,6.08-6.08Zm4.73,22.87v40.62h-9.46V34.84h9.46Z"></path><path class="cls-1" d="M322.96,55.2c0,12.45-9.46,21.52-21.71,21.52s-21.71-9.07-21.71-21.52,9.46-21.42,21.71-21.42,21.71,8.88,21.71,21.42Zm-9.65,.1c0-9.26-6.08-13.03-12.06-13.03s-12.06,3.76-12.06,13.03c0,7.82,4.63,12.93,12.06,12.93s12.06-5.11,12.06-12.93Z"></path></g><path class="cls-10" d="M32.92,75.89c-6.39,0-11.79-.76-16.12-2.28-4.35-1.52-7.66-3.8-9.96-6.84-2.29-3.03-3.63-6.88-3.99-11.54-.36-4.67,.23-10.15,1.79-16.45,1.56-6.31,3.68-11.8,6.36-16.46,2.69-4.66,5.93-8.5,9.74-11.52,3.82-3.01,8.26-5.27,13.34-6.77,5.09-1.5,10.81-2.26,17.19-2.26s11.67,.76,16,2.26c4.34,1.5,7.67,3.75,10,6.76,2.32,3.01,3.65,6.85,4.03,11.5,.38,4.65-.2,10.14-1.76,16.44-1.32,5.31-3.04,10.06-5.16,14.21-.45,.9-.93,1.76-1.43,2.6-4.81-2.01-9.63-4.03-14.44-6.05,1.57-3.07,2.86-6.65,3.87-10.76,2.09-8.45,1.99-14.68-.31-18.72-2.3-4.02-6.91-6.04-13.82-6.04s-12.42,2.02-16.75,6.07c-4.32,4.05-7.51,10.27-9.6,18.69-2.09,8.45-1.99,14.68,.31,18.72,2.28,4.02,6.87,6.04,13.78,6.04,5.11,0,9.52-1.13,13.22-3.39-.73-4.16-1.46-8.32-2.17-12.49,5.54,2.33,11.1,4.66,16.65,6.98,5.55,2.32,11.11,4.65,16.67,6.97-4.54,3.49-9.08,6.97-13.62,10.46-4.54,3.49-9.08,6.97-13.62,10.46-.56-3.2-1.11-6.4-1.67-9.61-5.91,2.09-12.24,3-18.53,3"></path><g><path class="cls-2" d="M62.93,41.68c-.71,2.44-1.58,4.85-2.65,7.15,4.04,1.69,8.07,3.38,12.11,5.07,.29-.51,.56-1.03,.83-1.55,1.86-3.67,3.3-7.56,4.42-11.52-4.78,.35-9.68,.64-14.71,.85m-8.91,38.48c3.97-3.05,7.95-6.1,11.92-9.15,3.95-3.03,7.9-6.07,11.84-9.1-4.87-2.04-9.74-4.07-14.6-6.11-4.82-2.02-9.65-4.04-14.47-6.07,.58,3.38,1.17,6.77,1.77,10.15l.15,.87-.75,.46c-4.21,2.57-8.99,3.58-13.89,3.58-5.73,0-11.87-1.35-14.91-6.7-2.63-4.63-2.21-11.04-1.16-16.47-4.92-.22-9.74-.51-14.42-.87-1.05,4.66-1.74,9.65-1.37,14.38,.3,3.89,1.35,7.72,3.73,10.86,2.36,3.12,5.7,5.12,9.35,6.4,4.92,1.72,10.52,2.2,15.7,2.2,6.12,0,12.31-.88,18.09-2.93l1.45-.51,.26,1.51c.43,2.5,.87,4.99,1.3,7.49Z"></path><g class="cls-11"><g><rect class="cls-4" x="3.77" y="40.76" width="74.02" height="39.4"></rect><g class="cls-9"><rect class="cls-4" x="3.77" y="40.76" width="74.02" height="1.36"></rect><rect class="cls-4" x="3.77" y="42.11" width="74.02" height=".28"></rect><rect class="cls-4" x="3.77" y="42.39" width="74.02" height=".28"></rect><rect class="cls-4" x="3.77" y="42.68" width="74.02" height=".28"></rect><rect class="cls-4" x="3.77" y="42.96" width="74.02" height=".28"></rect><rect class="cls-4" x="3.77" y="43.24" width="74.02" height=".28"></rect><rect class="cls-4" x="3.77" y="43.52" width="74.02" height=".28"></rect><rect class="cls-4" x="3.77" y="43.8" width="74.02" height=".28"></rect><rect class="cls-4" x="3.77" y="44.08" width="74.02" height=".28"></rect><rect class="cls-4" x="3.77" y="44.36" width="74.02" height=".28"></rect><rect class="cls-4" x="3.77" y="44.64" width="74.02" height=".28"></rect><rect class="cls-4" x="3.77" y="44.92" width="74.02" height=".28"></rect><rect class="cls-4" x="3.77" y="45.2" width="74.02" height=".28"></rect><rect class="cls-4" x="3.77" y="45.49" width="74.02" height=".28"></rect><rect class="cls-4" x="3.77" y="45.77" width="74.02" height=".28"></rect><rect class="cls-4" x="3.77" y="46.05" width="74.02" height=".28"></rect><rect class="cls-4" x="3.77" y="46.33" width="74.02" height=".28"></rect><rect class="cls-4" x="3.77" y="46.61" width="74.02" height=".28"></rect><rect class="cls-4" x="3.77" y="46.89" width="74.02" height=".28"></rect><rect class="cls-4" x="3.77" y="47.17" width="74.02" height=".28"></rect><rect class="cls-4" x="3.77" y="47.45" width="74.02" height=".28"></rect><rect class="cls-4" x="3.77" y="47.73" width="74.02" height=".28"></rect><rect class="cls-4" x="3.77" y="48.02" width="74.02" height=".28"></rect><rect class="cls-4" x="3.77" y="48.3" width="74.02" height=".28"></rect><rect class="cls-4" x="3.77" y="48.58" width="74.02" height=".28"></rect><rect class="cls-4" x="3.77" y="48.86" width="74.02" height=".28"></rect><rect class="cls-4" x="3.77" y="49.14" width="74.02" height=".28"></rect><rect class="cls-4" x="3.77" y="49.42" width="74.02" height=".28"></rect><rect class="cls-4" x="3.77" y="49.7" width="74.02" height=".28"></rect><rect class="cls-4" x="3.77" y="49.98" width="74.02" height=".28"></rect><rect class="cls-4" x="3.77" y="50.26" width="74.02" height=".28"></rect><rect class="cls-4" x="3.77" y="50.54" width="74.02" height=".28"></rect><rect class="cls-4" x="3.77" y="50.83" width="74.02" height=".28"></rect><rect class="cls-4" x="3.77" y="51.11" width="74.02" height=".28"></rect><rect class="cls-4" x="3.77" y="51.39" width="74.02" height=".28"></rect><rect class="cls-4" x="3.77" y="51.67" width="74.02" height=".28"></rect><rect class="cls-4" x="3.77" y="51.95" width="74.02" height=".28"></rect><rect class="cls-4" x="3.77" y="52.23" width="74.02" height=".28"></rect><rect class="cls-4" x="3.77" y="52.51" width="74.02" height=".28"></rect><rect class="cls-4" x="3.77" y="52.79" width="74.02" height=".28"></rect><rect class="cls-4" x="3.77" y="53.07" width="74.02" height=".28"></rect><rect class="cls-4" x="3.77" y="53.36" width="74.02" height=".28"></rect><rect class="cls-4" x="3.77" y="53.64" width="74.02" height=".28"></rect><rect class="cls-4" x="3.77" y="53.92" width="74.02" height=".28"></rect><rect class="cls-4" x="3.77" y="54.2" width="74.02" height=".28"></rect><rect class="cls-4" x="3.77" y="54.48" width="74.02" height=".28"></rect><rect class="cls-4" x="3.77" y="54.76" width="74.02" height=".28"></rect><rect class="cls-4" x="3.77" y="55.04" width="74.02" height=".28"></rect><rect class="cls-4" x="3.77" y="55.32" width="74.02" height=".28"></rect><rect class="cls-4" x="3.77" y="55.6" width="74.02" height=".28"></rect><rect class="cls-4" x="3.77" y="55.89" width="74.02" height=".28"></rect><rect class="cls-4" x="3.77" y="56.17" width="74.02" height=".28"></rect><rect class="cls-4" x="3.77" y="56.45" width="74.02" height=".28"></rect><rect class="cls-4" x="3.77" y="56.73" width="74.02" height=".28"></rect><rect class="cls-4" x="3.77" y="57.01" width="74.02" height=".28"></rect><rect class="cls-4" x="3.77" y="57.29" width="74.02" height=".28"></rect><rect class="cls-4" x="3.77" y="57.57" width="74.02" height=".28"></rect><rect class="cls-4" x="3.77" y="57.85" width="74.02" height=".28"></rect><rect class="cls-4" x="3.77" y="58.13" width="74.02" height=".28"></rect><rect class="cls-4" x="3.77" y="58.41" width="74.02" height=".28"></rect><rect class="cls-4" x="3.77" y="58.7" width="74.02" height=".28"></rect><rect class="cls-4" x="3.77" y="58.98" width="74.02" height=".28"></rect><rect class="cls-4" x="3.77" y="59.26" width="74.02" height=".28"></rect><rect class="cls-4" x="3.77" y="59.54" width="74.02" height=".28"></rect><rect class="cls-4" x="3.77" y="59.82" width="74.02" height=".28"></rect><rect class="cls-4" x="3.77" y="60.1" width="74.02" height=".28"></rect><rect class="cls-4" x="3.77" y="60.38" width="74.02" height=".28"></rect><rect class="cls-4" x="3.77" y="60.66" width="74.02" height=".28"></rect><rect class="cls-4" x="3.77" y="60.94" width="74.02" height=".28"></rect><rect class="cls-4" x="3.77" y="61.23" width="74.02" height=".28"></rect><rect class="cls-4" x="3.77" y="61.51" width="74.02" height=".28"></rect><rect class="cls-4" x="3.77" y="61.79" width="74.02" height=".28"></rect><rect class="cls-4" x="3.77" y="62.07" width="74.02" height=".28"></rect><rect class="cls-4" x="3.77" y="62.35" width="74.02" height=".28"></rect><rect class="cls-4" x="3.77" y="62.63" width="74.02" height=".28"></rect><rect class="cls-4" x="3.77" y="62.91" width="74.02" height=".28"></rect><rect class="cls-4" x="3.77" y="63.19" width="74.02" height=".28"></rect><rect class="cls-4" x="3.77" y="63.47" width="74.02" height=".28"></rect><rect class="cls-4" x="3.77" y="63.75" width="74.02" height=".28"></rect><rect class="cls-4" x="3.77" y="64.04" width="74.02" height="16.12"></rect></g></g></g></g><g><path class="cls-3" d="M19.92,41.62c.22-1.12,.46-2.19,.71-3.2,1.72-6.95,4.64-14.33,9.97-19.32,4.89-4.59,11-6.42,17.64-6.42,5.73,0,11.9,1.35,14.95,6.69,3.19,5.58,1.91,13.77,.45,19.68-.22,.88-.45,1.76-.71,2.64,5.02-.21,9.93-.5,14.71-.85,.23-.8,.44-1.6,.64-2.41,1.27-5.12,2.16-10.74,1.73-16.03-.32-3.87-1.36-7.7-3.77-10.81-2.39-3.09-5.75-5.06-9.4-6.32-4.9-1.7-10.42-2.19-15.58-2.19-5.65,0-11.38,.6-16.82,2.21-4.69,1.38-9.06,3.51-12.9,6.55-3.87,3.06-6.96,6.89-9.42,11.15-2.88,4.99-4.85,10.54-6.23,16.12-.14,.55-.27,1.1-.39,1.66,4.68,.36,9.5,.65,14.42,.87"></path><g class="cls-6"><g><rect class="cls-7" x="5.5" y="3.07" width="74.94" height="38.61"></rect><g class="cls-12"><rect class="cls-7" x="5.5" y="3.07" width="74.94" height="17.61"></rect><rect class="cls-7" x="5.5" y="20.68" width="74.94" height=".56"></rect><rect class="cls-7" x="5.5" y="21.23" width="74.94" height=".56"></rect><rect class="cls-7" x="5.5" y="21.79" width="74.94" height=".56"></rect><rect class="cls-7" x="5.5" y="22.34" width="74.94" height=".56"></rect><rect class="cls-7" x="5.5" y="22.9" width="74.94" height=".56"></rect><rect class="cls-7" x="5.5" y="23.45" width="74.94" height=".56"></rect><rect class="cls-7" x="5.5" y="24.01" width="74.94" height=".56"></rect><rect class="cls-7" x="5.5" y="24.56" width="74.94" height=".56"></rect><rect class="cls-7" x="5.5" y="25.12" width="74.94" height=".56"></rect><rect class="cls-7" x="5.5" y="25.67" width="74.94" height=".56"></rect><rect class="cls-7" x="5.5" y="26.23" width="74.94" height=".56"></rect><rect class="cls-7" x="5.5" y="26.78" width="74.94" height=".56"></rect><rect class="cls-7" x="5.5" y="27.34" width="74.94" height=".56"></rect><rect class="cls-7" x="5.5" y="27.89" width="74.94" height=".56"></rect><rect class="cls-7" x="5.5" y="28.45" width="74.94" height=".56"></rect><rect class="cls-7" x="5.5" y="29.01" width="74.94" height=".56"></rect><rect class="cls-7" x="5.5" y="29.56" width="74.94" height=".56"></rect><rect class="cls-7" x="5.5" y="30.12" width="74.94" height=".56"></rect><rect class="cls-7" x="5.5" y="30.67" width="74.94" height=".56"></rect><rect class="cls-7" x="5.5" y="31.23" width="74.94" height=".56"></rect><rect class="cls-7" x="5.5" y="31.78" width="74.94" height=".56"></rect><rect class="cls-7" x="5.5" y="32.34" width="74.94" height=".56"></rect><rect class="cls-7" x="5.5" y="32.89" width="74.94" height=".56"></rect><rect class="cls-7" x="5.5" y="33.45" width="74.94" height=".56"></rect><rect class="cls-7" x="5.5" y="34" width="74.94" height=".56"></rect><rect class="cls-7" x="5.5" y="34.56" width="74.94" height=".56"></rect><rect class="cls-7" x="5.5" y="35.11" width="74.94" height=".56"></rect><rect class="cls-7" x="5.5" y="35.67" width="74.94" height=".56"></rect><rect class="cls-7" x="5.5" y="36.22" width="74.94" height=".56"></rect><rect class="cls-7" x="5.5" y="36.78" width="74.94" height=".56"></rect><rect class="cls-7" x="5.5" y="37.33" width="74.94" height=".56"></rect><rect class="cls-7" x="5.5" y="37.89" width="74.94" height=".56"></rect><rect class="cls-7" x="5.5" y="38.45" width="74.94" height=".56"></rect><rect class="cls-7" x="5.5" y="39" width="74.94" height=".56"></rect><rect class="cls-7" x="5.5" y="39.56" width="74.94" height=".56"></rect><rect class="cls-7" x="5.5" y="40.11" width="74.94" height=".56"></rect><rect class="cls-7" x="5.5" y="40.67" width="74.94" height=".56"></rect><rect class="cls-7" x="5.5" y="41.22" width="74.94" height=".46"></rect></g></g></g></g></svg>